<?xml version="1.0"?>
<svg xmlns="http://www.w3.org/2000/svg" id="Layer_1" enable-background="new 0 0 512.071 512.071" height="512px" viewBox="0 0 512.071 512.071" width="512px"><g><path d="m497.751 123.095-17.68-17.69v-33.37c0-4.24-1.69-8.31-4.69-11.31l-39.03-39.03c-28.875-28.896-75.672-28.909-104.56 0l-38.91 38.9c-40.34 40.34-112.19 67.44-178.81 67.44-62.86 0-114 51.14-114 114 0 71.709-.508 61.887 1.19 68.75 15.14 60.53 22.81 122.86 22.81 185.25 0 8.84 7.16 16 16 16h96v-16c0-9.281-4.975-17.93-12.81-22.63-16.77-10.06-27.19-28.46-27.19-48.02v-41.35c0-4.24 1.69-8.31 4.69-11.31 19.15-19.15 32.91-42.27 40.49-67.51-1.08 5.72 1.01 11.83 5.93 15.64 5.78 4.47 11.75 8.57 17.91 12.29-8.9 21.28-21.33 40.55-37.02 57.35v34.89c0 8.38 4.46 16.27 11.65 20.58 18.29 10.974 28.33 31.095 28.33 48.75.029 1.255.02-.412.02 17.32 69.797 0 64.868.124 67.05-.29 12.025-2.36 17.879-17.408 7.9-27.38l-34.53-34.54 5.99-95.83c34.519 8.989 72.533 8.132 107.74-3.78 4.342 20.365 8.655 35.339 13.85 52.23v37.03l-7.59 5.06c-30.298 20.189-15.826 67.5 20.43 67.5h26.25c17.32 0 32.48-12.3 36.05-29.25 31.25-148.414 29.214-136.934 28.74-140.73-5.58-44.648-5.864-85.978-2.27-128.65l36.11-8.03c38.339-8.521 50.766-55.502 23.96-82.28z" data-original="#000000" class="active-path" data-old_color="#000000" fill="#FFFFFF"/></g> </svg>
